<svg xmlns="http://www.w3.org/2000/svg" aria-hidden="true" style="display:none">
  <!-- Fletta icon sprite  stroke-based, currentColor -->

  <symbol id="icon-logo" viewBox="0 0 24 24" fill="none" stroke="currentColor" stroke-width="1.5" stroke-linecap="round" stroke-linejoin="round">
    <circle cx="12" cy="5" r="2"/>
    <circle cx="6" cy="14" r="2"/>
    <circle cx="18" cy="14" r="2"/>
    <circle cx="12" cy="20" r="2"/>
    <path d="M12 7v4M12 11l-4 3M12 11l4 3M8 16l4 2M16 16l-4 2"/>
  </symbol>

  <symbol id="icon-button" viewBox="0 0 24 24" fill="none" stroke="currentColor" stroke-width="1.5" stroke-linecap="round" stroke-linejoin="round">
    <rect x="4" y="8" width="16" height="8" rx="2"/>
    <path d="M9 12h6"/>
  </symbol>

  <symbol id="icon-input" viewBox="0 0 24 24" fill="none" stroke="currentColor" stroke-width="1.5" stroke-linecap="round" stroke-linejoin="round">
    <rect x="3" y="7" width="18" height="10" rx="2"/>
    <path d="M7 11h.01M7 14h6"/>
  </symbol>

  <symbol id="icon-text" viewBox="0 0 24 24" fill="none" stroke="currentColor" stroke-width="1.5" stroke-linecap="round" stroke-linejoin="round">
    <path d="M4 7h16M4 12h10M4 17h14"/>
  </symbol>

  <symbol id="icon-tip" viewBox="0 0 24 24" fill="none" stroke="currentColor" stroke-width="1.5" stroke-linecap="round" stroke-linejoin="round">
    <path d="M9 18h6M10 22h4"/>
    <path d="M12 2a6 6 0 0 0-3 11v1h6v-1a6 6 0 0 0-3-11z"/>
  </symbol>

  <symbol id="icon-check" viewBox="0 0 24 24" fill="none" stroke="currentColor" stroke-width="1.5" stroke-linecap="round" stroke-linejoin="round">
    <path d="M20 6L9 17l-5-5"/>
  </symbol>

  <symbol id="icon-warning" viewBox="0 0 24 24" fill="none" stroke="currentColor" stroke-width="1.5" stroke-linecap="round" stroke-linejoin="round">
    <path d="M12 9v4M12 17h.01"/>
    <path d="M10.29 3.86L1.82 18a2 2 0 0 0 1.71 3h16.94a2 2 0 0 0 1.71-3L13.71 3.86a2 2 0 0 0-3.42 0z"/>
  </symbol>

  <symbol id="icon-zap" viewBox="0 0 24 24" fill="none" stroke="currentColor" stroke-width="1.5" stroke-linecap="round" stroke-linejoin="round">
    <path d="M13 2L3 14h9l-1 8 10-12h-9l1-8z"/>
  </symbol>

  <symbol id="icon-signature" viewBox="0 0 24 24" fill="none" stroke="currentColor" stroke-width="1.5" stroke-linecap="round" stroke-linejoin="round">
    <path d="M4 16c2-4 4-6 8-6s6 2 8 6"/>
    <circle cx="8" cy="8" r="2"/>
    <circle cx="16" cy="8" r="2"/>
    <path d="M12 10v2"/>
  </symbol>

  <symbol id="icon-sun" viewBox="0 0 24 24" fill="none" stroke="currentColor" stroke-width="1.5" stroke-linecap="round" stroke-linejoin="round">
    <circle cx="12" cy="12" r="4"/>
    <path d="M12 2v2M12 20v2M4.93 4.93l1.41 1.41M17.66 17.66l1.41 1.41M2 12h2M20 12h2M4.93 19.07l1.41-1.41M17.66 6.34l1.41-1.41"/>
  </symbol>

  <symbol id="icon-moon" viewBox="0 0 24 24" fill="none" stroke="currentColor" stroke-width="1.5" stroke-linecap="round" stroke-linejoin="round">
    <path d="M21 12.79A9 9 0 1 1 11.21 3 7 7 0 0 0 21 12.79z"/>
  </symbol>

  <symbol id="icon-copy" viewBox="0 0 24 24" fill="none" stroke="currentColor" stroke-width="1.5" stroke-linecap="round" stroke-linejoin="round">
    <rect x="9" y="9" width="11" height="11" rx="2"/>
    <path d="M5 15H4a2 2 0 0 1-2-2V4a2 2 0 0 1 2-2h9a2 2 0 0 1 2 2v1"/>
  </symbol>
</svg>
